<?xml version="1.0" encoding="utf-8"?>
<!-- Generator: Adobe Illustrator 16.0.0, SVG Export Plug-In . SVG Version: 6.00 Build 0)  -->
<!DOCTYPE svg PUBLIC "-//W3C//DTD SVG 1.1//EN" "http://www.w3.org/Graphics/SVG/1.1/DTD/svg11.dtd">
<svg version="1.1" id="Layer_1" xmlns="http://www.w3.org/2000/svg" xmlns:xlink="http://www.w3.org/1999/xlink" x="0px" y="0px"
	 width="59px" height="66px" viewBox="0 0 59 66" enable-background="new 0 0 59 66" xml:space="preserve">
<path fill="none" stroke="#FFFFFF" stroke-width="3" stroke-linejoin="round" stroke-miterlimit="10" d="M11.187,29.391H6.707
	L5.94,34.534c-0.61,0.157-1.042,0.193-1.344,0.193c-0.284,0-0.935-0.054-0.935-0.054l1.467-9.843
	c0.042-0.282-0.267-0.476-0.604-0.476c0,0,0.004-0.266,0.049-0.564c0.039-0.264,0.102-0.562,0.256-0.757
	c0.729-0.247,1.466-0.3,1.999-0.3c0.516,0,0.863,0.053,0.863,0.053L6.97,27.63h4.479l0.695-4.667
	c0.61-0.156,1.043-0.193,1.345-0.193c0.284,0,0.935,0.053,0.935,0.053l-1.478,9.915c-0.048,0.315,0.267,0.476,0.622,0.476
	c0,0-0.002,0.246-0.046,0.546c-0.043,0.282-0.125,0.6-0.297,0.792c-0.639,0.229-1.194,0.265-1.55,0.265
	c-0.587,0-1.267-0.212-1.267-0.212L11.187,29.391z"/>
<path fill="none" stroke="#FFFFFF" stroke-width="3" stroke-linejoin="round" stroke-miterlimit="10" d="M18.583,34.779
	c-1.67,0-3.645-1.074-3.2-4.05c0.446-2.993,2.759-4.19,4.286-4.19c1.725,0,3.113,1.303,2.754,3.715
	c-0.129,0.863-2.068,1.356-3.74,1.356c-0.355,0-0.69-0.017-1.104-0.105c-0.074,1.444,0.713,1.655,1.37,1.655
	c0.747,0,1.44-0.723,1.6-0.951c0.976,0.018,1.513,0.58,1.513,0.58C21.657,33.6,20.36,34.779,18.583,34.779z M18.832,30.131
	c0.693,0,1.361-0.07,1.388-0.246c0.098-0.652-0.039-1.761-0.77-1.761c-0.816,0-1.371,0.739-1.639,1.937
	C18.091,30.096,18.458,30.131,18.832,30.131z"/>
<path fill="none" stroke="#FFFFFF" stroke-width="3" stroke-linejoin="round" stroke-miterlimit="10" d="M25.073,24.056
	c0.104-0.688-0.503-0.44-0.503-0.44s-0.376-0.581-0.415-1.269c0.545-0.315,1.27-0.528,1.714-0.528c0.924,0,1.658,0.564,1.479,1.762
	l-1.317,8.84c-0.121,0.811,0.503,0.441,0.503,0.441c0.467,0.439,0.535,1.055,0.535,1.055s-0.68,0.863-1.889,0.863
	c-1.066,0-1.568-0.915-1.433-1.83L25.073,24.056z"/>
<path fill="none" stroke="#FFFFFF" stroke-width="3" stroke-linejoin="round" stroke-miterlimit="10" d="M29.839,24.056
	c0.104-0.688-0.503-0.44-0.503-0.44s-0.376-0.581-0.415-1.269c0.545-0.315,1.27-0.528,1.714-0.528c0.924,0,1.658,0.564,1.479,1.762
	l-1.317,8.84c-0.121,0.811,0.503,0.441,0.503,0.441c0.467,0.439,0.535,1.055,0.535,1.055s-0.68,0.863-1.889,0.863
	c-1.066,0-1.568-0.915-1.433-1.83L29.839,24.056z"/>
<path fill="none" stroke="#FFFFFF" stroke-width="3" stroke-linejoin="round" stroke-miterlimit="10" d="M35.844,29.339
	l-1.959-4.508c-0.105-0.247-0.64-0.476-0.978-0.476c0,0,0.003-0.266,0.048-0.564c0.039-0.264,0.103-0.562,0.255-0.757
	c0.624-0.247,1.183-0.3,1.573-0.3c0.374,0,0.597,0.053,0.597,0.053l1.499,3.664c0.198,0.458,0.39,1.32,0.39,1.32
	s0.448-0.862,0.783-1.32l2.727-3.857c1.104,0.105,1.743,0.704,1.743,0.704l-4.394,5.987l-0.783,5.249
	c-0.557,0.157-0.971,0.193-1.272,0.193c-0.392,0-1.019-0.088-1.019-0.088L35.844,29.339z"/>
<path fill="none" stroke="#FFFFFF" stroke-width="3" stroke-linejoin="round" stroke-miterlimit="10" d="M43.888,34.779
	c-1.67,0-3.645-1.074-3.2-4.049c0.446-2.994,2.759-4.191,4.286-4.191c1.725,0,3.113,1.303,2.753,3.715
	c-0.128,0.863-2.067,1.356-3.739,1.356c-0.355,0-0.69-0.017-1.104-0.105c-0.074,1.444,0.713,1.655,1.37,1.655
	c0.747,0,1.44-0.723,1.6-0.951c0.976,0.018,1.513,0.58,1.513,0.58C46.962,33.6,45.665,34.779,43.888,34.779z M44.137,30.131
	c0.693,0,1.361-0.07,1.388-0.246c0.098-0.652-0.039-1.761-0.77-1.761c-0.816,0-1.371,0.739-1.639,1.937
	C43.396,30.096,43.763,30.131,44.137,30.131z"/>
<path fill="none" stroke="#FFFFFF" stroke-width="3" stroke-linejoin="round" stroke-miterlimit="10" d="M50.642,31.117
	c-0.941-0.37-1.605-1.162-1.44-2.272c0.174-1.161,1.305-2.306,3.189-2.306c1.902,0,2.46,1.145,2.55,1.497
	c0,0-0.458,0.563-1.519,0.757c0,0-0.428-0.705-1.139-0.705c-0.391,0-0.801,0.248-0.853,0.6c-0.04,0.264,0.045,0.527,0.364,0.651
	l0.958,0.369c1.598,0.616,1.891,1.515,1.725,2.624c-0.154,1.039-1.396,2.447-3.44,2.447c-2.115,0-2.649-1.426-2.726-1.99
	c0.726-0.457,1.631-0.686,1.631-0.686s0.265,1.092,1.261,1.092c0.693,0,0.966-0.406,1.026-0.81c0.065-0.44-0.129-0.688-0.699-0.917
	L50.642,31.117z"/>
<rect x="31" y="26.5" fill="#FFFFFF" width="7" height="7"/>
<path fill="#0F4DA1" d="M11.369,29.229h-4.48l-0.766,5.144c-0.611,0.158-1.043,0.193-1.345,0.193c-0.284,0-0.935-0.053-0.935-0.053
	l1.468-9.846c0.042-0.281-0.267-0.476-0.604-0.476c0,0,0.004-0.264,0.049-0.563c0.039-0.264,0.102-0.563,0.255-0.757
	c0.729-0.247,1.466-0.3,1.999-0.3c0.516,0,0.863,0.053,0.863,0.053l-0.721,4.844h4.479l0.696-4.667
	c0.61-0.159,1.042-0.194,1.345-0.194c0.283,0,0.934,0.053,0.934,0.053l-1.478,9.916c-0.048,0.316,0.267,0.476,0.622,0.476
	c0,0-0.002,0.246-0.046,0.546c-0.042,0.281-0.124,0.599-0.296,0.793c-0.639,0.229-1.195,0.264-1.551,0.264
	c-0.586,0-1.266-0.211-1.266-0.211L11.369,29.229z"/>
<path fill="#0F4DA1" d="M18.766,34.619c-1.671,0-3.645-1.074-3.201-4.051c0.446-2.994,2.759-4.191,4.287-4.191
	c1.725,0,3.112,1.303,2.753,3.717c-0.129,0.861-2.068,1.355-3.739,1.355c-0.356,0-0.691-0.019-1.104-0.106
	c-0.073,1.444,0.713,1.655,1.37,1.655c0.747,0,1.441-0.721,1.6-0.949c0.976,0.017,1.514,0.58,1.514,0.58
	C21.839,33.439,20.543,34.619,18.766,34.619z M19.014,29.97c0.693,0,1.361-0.071,1.388-0.247c0.098-0.651-0.039-1.762-0.769-1.762
	c-0.817,0-1.372,0.74-1.639,1.938C18.272,29.935,18.641,29.97,19.014,29.97z"/>
<path fill="#0F4DA1" d="M25.256,23.893c0.103-0.686-0.504-0.439-0.504-0.439s-0.375-0.581-0.415-1.269
	c0.545-0.317,1.271-0.528,1.714-0.528c0.924,0,1.658,0.564,1.48,1.762l-1.318,8.841c-0.121,0.81,0.503,0.44,0.503,0.44
	c0.468,0.44,0.536,1.057,0.536,1.057s-0.68,0.863-1.889,0.863c-1.066,0-1.57-0.916-1.434-1.832L25.256,23.893z"/>
<path fill="#0F4DA1" d="M30.021,23.893c0.103-0.686-0.504-0.439-0.504-0.439s-0.375-0.581-0.415-1.269
	c0.545-0.317,1.271-0.528,1.714-0.528c0.924,0,1.658,0.564,1.48,1.762l-1.318,8.841c-0.121,0.81,0.503,0.44,0.503,0.44
	c0.468,0.44,0.536,1.057,0.536,1.057s-0.68,0.863-1.889,0.863c-1.066,0-1.57-0.916-1.434-1.832L30.021,23.893z"/>
<path fill="#0F4DA1" d="M36.025,29.177l-1.958-4.509c-0.106-0.246-0.64-0.476-0.978-0.476c0,0,0.002-0.264,0.047-0.563
	c0.04-0.264,0.104-0.563,0.256-0.757c0.623-0.247,1.182-0.3,1.572-0.3c0.375,0,0.598,0.053,0.598,0.053l1.498,3.664
	c0.199,0.457,0.39,1.32,0.39,1.32s0.448-0.863,0.784-1.32l2.726-3.857c1.104,0.105,1.744,0.704,1.744,0.704l-4.396,5.989
	l-0.781,5.248c-0.557,0.158-0.972,0.193-1.273,0.193c-0.392,0-1.018-0.088-1.018-0.088L36.025,29.177z"/>
<path fill="#0F4DA1" d="M44.07,34.619c-1.671,0-3.645-1.074-3.201-4.051c0.446-2.994,2.759-4.191,4.287-4.191
	c1.725,0,3.112,1.303,2.753,3.717c-0.129,0.861-2.068,1.355-3.739,1.355c-0.356,0-0.691-0.019-1.104-0.106
	c-0.073,1.444,0.713,1.655,1.37,1.655c0.747,0,1.441-0.721,1.6-0.949c0.976,0.017,1.514,0.58,1.514,0.58
	C47.144,33.439,45.848,34.619,44.07,34.619z M44.318,29.97c0.693,0,1.361-0.071,1.388-0.247c0.098-0.651-0.039-1.762-0.769-1.762
	c-0.817,0-1.372,0.74-1.639,1.938C43.577,29.935,43.945,29.97,44.318,29.97z"/>
<path fill="#0F4DA1" d="M50.823,30.955c-0.94-0.369-1.604-1.161-1.439-2.271c0.173-1.162,1.304-2.307,3.188-2.307
	c1.902,0,2.461,1.145,2.551,1.496c0,0-0.459,0.564-1.519,0.758c0,0-0.429-0.704-1.14-0.704c-0.391,0-0.8,0.246-0.853,0.599
	c-0.039,0.264,0.046,0.528,0.364,0.651l0.958,0.37c1.598,0.617,1.891,1.516,1.726,2.624c-0.155,1.039-1.396,2.448-3.441,2.448
	c-2.115,0-2.648-1.426-2.725-1.99c0.725-0.458,1.631-0.688,1.631-0.688s0.264,1.093,1.26,1.093c0.693,0,0.967-0.405,1.027-0.81
	c0.065-0.441-0.129-0.688-0.7-0.916L50.823,30.955z"/>
</svg>
