<?xml version="1.0" encoding="iso-8859-1"?>
<!-- Generator: Adobe Illustrator 16.0.0, SVG Export Plug-In . SVG Version: 6.00 Build 0)  -->
<!DOCTYPE svg PUBLIC "-//W3C//DTD SVG 1.1//EN" "http://www.w3.org/Graphics/SVG/1.1/DTD/svg11.dtd">
<svg version="1.1" id="Layer_1" xmlns="http://www.w3.org/2000/svg" xmlns:xlink="http://www.w3.org/1999/xlink" x="0px" y="0px"
	 width="125px" height="32px" viewBox="0 0 125 32" style="enable-background:new 0 0 125 32;" xml:space="preserve">
<g>
	<g>
		<path d="M23.187,16.391h-4.479l-0.767,5.143c-0.61,0.158-1.042,0.193-1.344,0.193c-0.284,0-0.935-0.053-0.935-0.053l1.467-9.843
			c0.042-0.283-0.267-0.476-0.604-0.476c0,0,0.004-0.265,0.049-0.564c0.039-0.264,0.102-0.563,0.256-0.757
			c0.729-0.247,1.466-0.3,1.999-0.3c0.516,0,0.863,0.053,0.863,0.053L18.97,14.63h4.479l0.695-4.667
			c0.61-0.157,1.043-0.194,1.345-0.194c0.284,0,0.935,0.053,0.935,0.053l-1.478,9.915c-0.048,0.316,0.267,0.476,0.622,0.476
			c0,0-0.002,0.247-0.046,0.546c-0.043,0.282-0.125,0.6-0.297,0.792c-0.639,0.228-1.194,0.264-1.55,0.264
			c-0.587,0-1.267-0.212-1.267-0.212L23.187,16.391z"/>
		<path d="M30.583,21.779c-1.67,0-3.645-1.073-3.2-4.049c0.446-2.993,2.759-4.19,4.286-4.19c1.725,0,3.113,1.303,2.754,3.715
			c-0.129,0.863-2.068,1.356-3.74,1.356c-0.355,0-0.69-0.017-1.104-0.105c-0.074,1.444,0.713,1.655,1.37,1.655
			c0.747,0,1.44-0.722,1.6-0.951c0.976,0.018,1.513,0.581,1.513,0.581C33.657,20.6,32.36,21.779,30.583,21.779z M30.832,17.131
			c0.693,0,1.361-0.071,1.388-0.247c0.098-0.652-0.039-1.76-0.77-1.76c-0.816,0-1.371,0.739-1.639,1.936
			C30.091,17.096,30.458,17.131,30.832,17.131z"/>
		<path d="M37.073,11.056c0.104-0.688-0.503-0.44-0.503-0.44s-0.376-0.582-0.415-1.269c0.545-0.316,1.27-0.528,1.714-0.528
			c0.924,0,1.658,0.564,1.479,1.761l-1.317,8.84c-0.121,0.811,0.503,0.441,0.503,0.441c0.467,0.439,0.535,1.055,0.535,1.055
			s-0.68,0.862-1.889,0.862c-1.066,0-1.568-0.915-1.433-1.83L37.073,11.056z"/>
		<path d="M41.839,11.056c0.104-0.688-0.503-0.44-0.503-0.44s-0.376-0.582-0.415-1.269c0.545-0.316,1.27-0.528,1.714-0.528
			c0.924,0,1.658,0.564,1.479,1.761l-1.317,8.84c-0.121,0.811,0.503,0.441,0.503,0.441c0.467,0.439,0.535,1.055,0.535,1.055
			s-0.68,0.862-1.889,0.862c-1.066,0-1.568-0.915-1.433-1.83L41.839,11.056z"/>
		<path d="M47.844,16.339l-1.959-4.508c-0.105-0.248-0.64-0.476-0.978-0.476c0,0,0.003-0.265,0.048-0.564
			c0.039-0.264,0.103-0.563,0.255-0.757c0.624-0.247,1.183-0.3,1.573-0.3c0.374,0,0.597,0.053,0.597,0.053l1.499,3.663
			c0.198,0.458,0.39,1.321,0.39,1.321s0.448-0.863,0.783-1.321l2.727-3.857c1.104,0.106,1.743,0.705,1.743,0.705l-4.394,5.987
			l-0.783,5.25c-0.557,0.158-0.971,0.193-1.272,0.193c-0.392,0-1.019-0.088-1.019-0.088L47.844,16.339z"/>
		<path d="M55.888,21.779c-1.67,0-3.645-1.073-3.2-4.049c0.446-2.994,2.759-4.191,4.286-4.191c1.725,0,3.113,1.303,2.753,3.715
			c-0.128,0.863-2.067,1.356-3.739,1.356c-0.355,0-0.69-0.017-1.104-0.105c-0.074,1.444,0.713,1.655,1.37,1.655
			c0.747,0,1.44-0.722,1.6-0.951c0.976,0.018,1.513,0.581,1.513,0.581C58.962,20.6,57.665,21.779,55.888,21.779z M56.137,17.131
			c0.693,0,1.361-0.071,1.388-0.247c0.098-0.652-0.039-1.76-0.77-1.76c-0.816,0-1.371,0.739-1.639,1.936
			C55.396,17.096,55.763,17.131,56.137,17.131z"/>
		<path d="M62.642,18.118c-0.941-0.371-1.605-1.163-1.44-2.273c0.174-1.161,1.305-2.306,3.189-2.306c1.902,0,2.46,1.145,2.55,1.497
			c0,0-0.458,0.563-1.519,0.757c0,0-0.428-0.705-1.139-0.705c-0.391,0-0.801,0.248-0.853,0.599c-0.04,0.264,0.045,0.528,0.364,0.651
			l0.958,0.369c1.598,0.616,1.891,1.515,1.725,2.625c-0.154,1.039-1.396,2.446-3.44,2.446c-2.115,0-2.649-1.426-2.726-1.989
			c0.726-0.457,1.631-0.686,1.631-0.686s0.265,1.092,1.261,1.092c0.693,0,0.966-0.406,1.026-0.81
			c0.065-0.441-0.129-0.688-0.699-0.917L62.642,18.118z"/>
		<path d="M72.692,21.779c-2.79,0-5.19-2.023-4.576-6.146c0.641-4.296,3.845-6.004,6.263-6.004c2.596,0,3.742,1.374,3.817,1.461
			c-0.104,0.705-0.22,1.356-0.495,2.131c-0.271,0.036-0.541,0.052-0.808,0.052c-0.516,0-0.935-0.052-0.935-0.052
			c0.21-1.409-0.756-1.849-1.857-1.849c-1.866,0-3.269,1.779-3.634,4.227c-0.367,2.466,0.471,4.35,2.533,4.35
			c1.76,0,2.586-1.603,2.586-1.603c0.978,0,1.873,0.546,1.873,0.546C76.99,20.02,75.377,21.779,72.692,21.779z"/>
		<path d="M84.113,13.767c0.606-0.141,1.004-0.176,1.27-0.176c0.373,0,0.982,0.087,0.982,0.087L85.51,19.42
			c-0.121,0.811,0.504,0.441,0.504,0.441c0.467,0.439,0.535,1.055,0.535,1.055c-0.087,0.106-0.735,0.881-1.838,0.881
			c-0.64,0-1.151-0.387-1.344-0.757c-0.338,0.352-0.914,0.757-1.784,0.757c-1.334,0-2.832-0.915-2.496-3.169l0.425-2.853
			c0.103-0.687-0.504-0.439-0.504-0.439s-0.375-0.582-0.415-1.269c0.545-0.317,1.288-0.528,1.732-0.528
			c0.925,0,1.676,0.563,1.497,1.761l-0.518,3.469c-0.16,1.075,0.451,1.391,1.02,1.391c0.444,0,0.807-0.282,0.894-0.387
			L84.113,13.767z"/>
		<path d="M88.83,15.775c0.103-0.687-0.504-0.439-0.504-0.439s-0.375-0.582-0.415-1.269c0.545-0.317,1.271-0.528,1.715-0.528
			c0.479,0,0.974,0.14,1.253,0.774c0.625-0.492,1.36-0.774,2.089-0.774c1.387,0,3.312,1.039,2.85,4.139
			c-0.449,3.011-2.783,4.12-4.224,4.12c-0.408,0-0.954-0.158-1.346-0.511l-0.659,4.419c-0.646,0.16-1.039,0.178-1.324,0.178
			c-0.284,0-0.936-0.037-0.936-0.037L88.83,15.775z M90.5,19.597c0.229,0.247,0.658,0.476,1.155,0.476c0.8,0,1.541-0.67,1.782-2.29
			c0.226-1.515-0.173-2.659-1.115-2.659c-0.746,0-1.234,0.527-1.234,0.527L90.5,19.597z"/>
		<path d="M98.076,15.775c0.103-0.687-0.503-0.439-0.503-0.439s-0.376-0.582-0.415-1.269c0.545-0.317,1.27-0.528,1.715-0.528
			c0.924,0,1.657,0.563,1.479,1.761l-0.614,4.121c-0.126,0.845,0.504,0.441,0.504,0.441c0.468,0.439,0.535,1.055,0.535,1.055
			s-0.679,0.862-1.888,0.862c-1.066,0-1.571-0.915-1.435-1.83L98.076,15.775z M98.603,10.933c0.103-0.688,0.718-1.233,1.411-1.233
			s1.162,0.546,1.06,1.233c-0.103,0.686-0.731,1.214-1.425,1.214S98.5,11.619,98.603,10.933z"/>
		<path d="M108.087,10.88c0.105-0.704,0.044-1.603,0.044-1.603c1.008-0.44,2.201-0.458,2.201-0.458s0.182,0.81,0.056,1.655
			l-1.333,8.947c-0.121,0.811,0.503,0.441,0.503,0.441c0.468,0.439,0.535,1.055,0.535,1.055s-0.682,0.881-1.891,0.881
			c-0.587,0-1.141-0.334-1.353-0.827c-0.445,0.369-1.189,0.827-2.078,0.827c-1.369,0-3.189-1.269-2.771-4.067
			c0.443-2.976,2.759-4.191,4.234-4.191c0.604,0,1.095,0.158,1.401,0.37L108.087,10.88z M107.405,15.458
			c-0.241-0.176-0.59-0.333-1.123-0.333c-0.978,0-1.731,0.879-1.976,2.518c-0.226,1.514,0.265,2.518,1.153,2.518
			c0.747,0,1.325-0.546,1.325-0.546L107.405,15.458z"/>
	</g>
	<g>
		<path style="fill:none;stroke:#FFFFFF;stroke-width:3.5;stroke-linecap:round;stroke-linejoin:round;" d="M23.187,16.391h-4.479
			l-0.767,5.143c-0.61,0.158-1.042,0.193-1.344,0.193c-0.284,0-0.935-0.053-0.935-0.053l1.467-9.843
			c0.042-0.283-0.267-0.476-0.604-0.476c0,0,0.004-0.265,0.049-0.564c0.039-0.264,0.102-0.563,0.256-0.757
			c0.729-0.247,1.466-0.3,1.999-0.3c0.516,0,0.863,0.053,0.863,0.053L18.97,14.63h4.479l0.695-4.667
			c0.61-0.157,1.043-0.194,1.345-0.194c0.284,0,0.935,0.053,0.935,0.053l-1.478,9.915c-0.048,0.316,0.267,0.476,0.622,0.476
			c0,0-0.002,0.247-0.046,0.546c-0.043,0.282-0.125,0.6-0.297,0.792c-0.639,0.228-1.194,0.264-1.55,0.264
			c-0.587,0-1.267-0.212-1.267-0.212L23.187,16.391z"/>
		<path style="fill:none;stroke:#FFFFFF;stroke-width:3.5;stroke-linecap:round;stroke-linejoin:round;" d="M30.583,21.779
			c-1.67,0-3.645-1.073-3.2-4.049c0.446-2.993,2.759-4.19,4.286-4.19c1.725,0,3.113,1.303,2.754,3.715
			c-0.129,0.863-2.068,1.356-3.74,1.356c-0.355,0-0.69-0.017-1.104-0.105c-0.074,1.444,0.713,1.655,1.37,1.655
			c0.747,0,1.44-0.722,1.6-0.951c0.976,0.018,1.513,0.581,1.513,0.581C33.657,20.6,32.36,21.779,30.583,21.779z M30.832,17.131
			c0.693,0,1.361-0.071,1.388-0.247c0.098-0.652-0.039-1.76-0.77-1.76c-0.816,0-1.371,0.739-1.639,1.936
			C30.091,17.096,30.458,17.131,30.832,17.131z"/>
		<path style="fill:none;stroke:#FFFFFF;stroke-width:3.5;stroke-linecap:round;stroke-linejoin:round;" d="M37.073,11.056
			c0.104-0.688-0.503-0.44-0.503-0.44s-0.376-0.582-0.415-1.269c0.545-0.316,1.27-0.528,1.714-0.528
			c0.924,0,1.658,0.564,1.479,1.761l-1.317,8.84c-0.121,0.811,0.503,0.441,0.503,0.441c0.467,0.439,0.535,1.055,0.535,1.055
			s-0.68,0.862-1.889,0.862c-1.066,0-1.568-0.915-1.433-1.83L37.073,11.056z"/>
		<path style="fill:none;stroke:#FFFFFF;stroke-width:3.5;stroke-linecap:round;stroke-linejoin:round;" d="M41.839,11.056
			c0.104-0.688-0.503-0.44-0.503-0.44s-0.376-0.582-0.415-1.269c0.545-0.316,1.27-0.528,1.714-0.528
			c0.924,0,1.658,0.564,1.479,1.761l-1.317,8.84c-0.121,0.811,0.503,0.441,0.503,0.441c0.467,0.439,0.535,1.055,0.535,1.055
			s-0.68,0.862-1.889,0.862c-1.066,0-1.568-0.915-1.433-1.83L41.839,11.056z"/>
		<path style="fill:none;stroke:#FFFFFF;stroke-width:3.5;stroke-linecap:round;stroke-linejoin:round;" d="M47.844,16.339
			l-1.959-4.508c-0.105-0.248-0.64-0.476-0.978-0.476c0,0,0.003-0.265,0.048-0.564c0.039-0.264,0.103-0.563,0.255-0.757
			c0.624-0.247,1.183-0.3,1.573-0.3c0.374,0,0.597,0.053,0.597,0.053l1.499,3.663c0.198,0.458,0.39,1.321,0.39,1.321
			s0.448-0.863,0.783-1.321l2.727-3.857c1.104,0.106,1.743,0.705,1.743,0.705l-4.394,5.987l-0.783,5.25
			c-0.557,0.158-0.971,0.193-1.272,0.193c-0.392,0-1.019-0.088-1.019-0.088L47.844,16.339z"/>
		<path style="fill:none;stroke:#FFFFFF;stroke-width:3.5;stroke-linecap:round;stroke-linejoin:round;" d="M55.888,21.779
			c-1.67,0-3.645-1.073-3.2-4.049c0.446-2.994,2.759-4.191,4.286-4.191c1.725,0,3.113,1.303,2.753,3.715
			c-0.128,0.863-2.067,1.356-3.739,1.356c-0.355,0-0.69-0.017-1.104-0.105c-0.074,1.444,0.713,1.655,1.37,1.655
			c0.747,0,1.44-0.722,1.6-0.951c0.976,0.018,1.513,0.581,1.513,0.581C58.962,20.6,57.665,21.779,55.888,21.779z M56.137,17.131
			c0.693,0,1.361-0.071,1.388-0.247c0.098-0.652-0.039-1.76-0.77-1.76c-0.816,0-1.371,0.739-1.639,1.936
			C55.396,17.096,55.763,17.131,56.137,17.131z"/>
		<path style="fill:none;stroke:#FFFFFF;stroke-width:3.5;stroke-linecap:round;stroke-linejoin:round;" d="M62.642,18.118
			c-0.941-0.371-1.605-1.163-1.44-2.273c0.174-1.161,1.305-2.306,3.189-2.306c1.902,0,2.46,1.145,2.55,1.497
			c0,0-0.458,0.563-1.519,0.757c0,0-0.428-0.705-1.139-0.705c-0.391,0-0.801,0.248-0.853,0.599c-0.04,0.264,0.045,0.528,0.364,0.651
			l0.958,0.369c1.598,0.616,1.891,1.515,1.725,2.625c-0.154,1.039-1.396,2.446-3.44,2.446c-2.115,0-2.649-1.426-2.726-1.989
			c0.726-0.457,1.631-0.686,1.631-0.686s0.265,1.092,1.261,1.092c0.693,0,0.966-0.406,1.026-0.81
			c0.065-0.441-0.129-0.688-0.699-0.917L62.642,18.118z"/>
		<path style="fill:none;stroke:#FFFFFF;stroke-width:3.5;stroke-linecap:round;stroke-linejoin:round;" d="M72.692,21.779
			c-2.79,0-5.19-2.023-4.576-6.146c0.641-4.296,3.845-6.004,6.263-6.004c2.596,0,3.742,1.374,3.817,1.461
			c-0.104,0.705-0.22,1.356-0.495,2.131c-0.271,0.036-0.541,0.052-0.808,0.052c-0.516,0-0.935-0.052-0.935-0.052
			c0.21-1.409-0.756-1.849-1.857-1.849c-1.866,0-3.269,1.779-3.634,4.227c-0.367,2.466,0.471,4.35,2.533,4.35
			c1.76,0,2.586-1.603,2.586-1.603c0.978,0,1.873,0.546,1.873,0.546C76.99,20.02,75.377,21.779,72.692,21.779z"/>
		<path style="fill:none;stroke:#FFFFFF;stroke-width:3.5;stroke-linecap:round;stroke-linejoin:round;" d="M84.113,13.767
			c0.606-0.141,1.004-0.176,1.27-0.176c0.373,0,0.982,0.087,0.982,0.087L85.51,19.42c-0.121,0.811,0.504,0.441,0.504,0.441
			c0.467,0.439,0.535,1.055,0.535,1.055c-0.087,0.106-0.735,0.881-1.838,0.881c-0.64,0-1.151-0.387-1.344-0.757
			c-0.338,0.352-0.914,0.757-1.784,0.757c-1.334,0-2.832-0.915-2.496-3.169l0.425-2.853c0.103-0.687-0.504-0.439-0.504-0.439
			s-0.375-0.582-0.415-1.269c0.545-0.317,1.288-0.528,1.732-0.528c0.925,0,1.676,0.563,1.497,1.761l-0.518,3.469
			c-0.16,1.075,0.451,1.391,1.02,1.391c0.444,0,0.807-0.282,0.894-0.387L84.113,13.767z"/>
		<path style="fill:none;stroke:#FFFFFF;stroke-width:3.5;stroke-linecap:round;stroke-linejoin:round;" d="M88.83,15.775
			c0.103-0.687-0.504-0.439-0.504-0.439s-0.375-0.582-0.415-1.269c0.545-0.317,1.271-0.528,1.715-0.528
			c0.479,0,0.974,0.14,1.253,0.774c0.625-0.492,1.36-0.774,2.089-0.774c1.387,0,3.312,1.039,2.85,4.139
			c-0.449,3.011-2.783,4.12-4.224,4.12c-0.408,0-0.954-0.158-1.346-0.511l-0.659,4.419c-0.646,0.16-1.039,0.178-1.324,0.178
			c-0.284,0-0.936-0.037-0.936-0.037L88.83,15.775z M90.5,19.597c0.229,0.247,0.658,0.476,1.155,0.476c0.8,0,1.541-0.67,1.782-2.29
			c0.226-1.515-0.173-2.659-1.115-2.659c-0.746,0-1.234,0.527-1.234,0.527L90.5,19.597z"/>
		<path style="fill:none;stroke:#FFFFFF;stroke-width:3.5;stroke-linecap:round;stroke-linejoin:round;" d="M98.076,15.775
			c0.103-0.687-0.503-0.439-0.503-0.439s-0.376-0.582-0.415-1.269c0.545-0.317,1.27-0.528,1.715-0.528
			c0.924,0,1.657,0.563,1.479,1.761l-0.614,4.121c-0.126,0.845,0.504,0.441,0.504,0.441c0.468,0.439,0.535,1.055,0.535,1.055
			s-0.679,0.862-1.888,0.862c-1.066,0-1.571-0.915-1.435-1.83L98.076,15.775z M98.603,10.933c0.103-0.688,0.718-1.233,1.411-1.233
			s1.162,0.546,1.06,1.233c-0.103,0.686-0.731,1.214-1.425,1.214S98.5,11.619,98.603,10.933z"/>
		<path style="fill:none;stroke:#FFFFFF;stroke-width:3.5;stroke-linecap:round;stroke-linejoin:round;" d="M108.087,10.88
			c0.105-0.704,0.044-1.603,0.044-1.603c1.008-0.44,2.201-0.458,2.201-0.458s0.182,0.81,0.056,1.655l-1.333,8.947
			c-0.121,0.811,0.503,0.441,0.503,0.441c0.468,0.439,0.535,1.055,0.535,1.055s-0.682,0.881-1.891,0.881
			c-0.587,0-1.141-0.334-1.353-0.827c-0.445,0.369-1.189,0.827-2.078,0.827c-1.369,0-3.189-1.269-2.771-4.067
			c0.443-2.976,2.759-4.191,4.234-4.191c0.604,0,1.095,0.158,1.401,0.37L108.087,10.88z M107.405,15.458
			c-0.241-0.176-0.59-0.333-1.123-0.333c-0.978,0-1.731,0.879-1.976,2.518c-0.226,1.514,0.265,2.518,1.153,2.518
			c0.747,0,1.325-0.546,1.325-0.546L107.405,15.458z"/>
	</g>
</g>
<rect x="70" y="11.5" style="fill:#FFFFFF;" width="8" height="8"/>
<rect x="43" y="14.5" style="fill:#FFFFFF;" width="7" height="6"/>
<g>
	<g>
		<path style="fill:#0F4DA1;" d="M23.369,16.229h-4.479l-0.767,5.144c-0.61,0.158-1.042,0.193-1.344,0.193
			c-0.284,0-0.935-0.053-0.935-0.053l1.468-9.845c0.042-0.281-0.267-0.476-0.605-0.476c0,0,0.004-0.264,0.049-0.563
			c0.04-0.265,0.102-0.564,0.255-0.757c0.729-0.247,1.466-0.299,2-0.299c0.516,0,0.863,0.052,0.863,0.052l-0.722,4.844h4.479
			l0.696-4.667c0.61-0.159,1.042-0.194,1.344-0.194c0.284,0,0.934,0.053,0.934,0.053l-1.478,9.916
			c-0.047,0.316,0.267,0.475,0.622,0.475c0,0-0.001,0.246-0.046,0.545c-0.042,0.282-0.125,0.599-0.296,0.793
			c-0.639,0.229-1.195,0.264-1.55,0.264c-0.587,0-1.266-0.211-1.266-0.211L23.369,16.229z"/>
		<path style="fill:#0F4DA1;" d="M30.766,21.619c-1.671,0-3.645-1.074-3.201-4.051c0.446-2.994,2.759-4.192,4.287-4.192
			c1.725,0,3.112,1.304,2.753,3.717c-0.129,0.862-2.068,1.356-3.739,1.356c-0.356,0-0.691-0.019-1.104-0.106
			c-0.074,1.444,0.713,1.656,1.37,1.656c0.747,0,1.441-0.722,1.6-0.95c0.975,0.017,1.513,0.58,1.513,0.58
			C33.839,20.439,32.543,21.619,30.766,21.619z M31.014,16.97c0.693,0,1.361-0.071,1.387-0.247c0.098-0.652-0.039-1.762-0.769-1.762
			c-0.817,0-1.372,0.74-1.639,1.938C30.272,16.935,30.64,16.97,31.014,16.97z"/>
		<path style="fill:#0F4DA1;" d="M37.256,10.893c0.103-0.687-0.503-0.44-0.503-0.44s-0.375-0.581-0.416-1.268
			c0.545-0.317,1.27-0.528,1.714-0.528c0.924,0,1.658,0.564,1.479,1.762l-1.318,8.841c-0.121,0.81,0.503,0.44,0.503,0.44
			c0.468,0.44,0.536,1.057,0.536,1.057s-0.68,0.863-1.889,0.863c-1.066,0-1.57-0.916-1.433-1.832L37.256,10.893z"/>
		<path style="fill:#0F4DA1;" d="M42.021,10.893c0.103-0.687-0.503-0.44-0.503-0.44s-0.375-0.581-0.416-1.268
			c0.545-0.317,1.27-0.528,1.714-0.528c0.924,0,1.658,0.564,1.479,1.762l-1.318,8.841c-0.121,0.81,0.503,0.44,0.503,0.44
			c0.468,0.44,0.536,1.057,0.536,1.057s-0.68,0.863-1.889,0.863c-1.066,0-1.57-0.916-1.433-1.832L42.021,10.893z"/>
		<path style="fill:#0F4DA1;" d="M48.026,16.177l-1.958-4.509c-0.106-0.247-0.64-0.476-0.978-0.476c0,0,0.003-0.264,0.048-0.563
			c0.04-0.265,0.103-0.564,0.255-0.757c0.624-0.247,1.182-0.299,1.573-0.299c0.374,0,0.597,0.052,0.597,0.052l1.499,3.664
			c0.198,0.458,0.389,1.321,0.389,1.321s0.449-0.863,0.784-1.321l2.726-3.857c1.104,0.105,1.744,0.704,1.744,0.704l-4.395,5.989
			l-0.782,5.249c-0.557,0.158-0.971,0.193-1.273,0.193c-0.392,0-1.018-0.088-1.018-0.088L48.026,16.177z"/>
		<path style="fill:#0F4DA1;" d="M56.07,21.619c-1.671,0-3.645-1.074-3.201-4.051c0.446-2.994,2.759-4.192,4.287-4.192
			c1.725,0,3.112,1.304,2.753,3.717c-0.129,0.862-2.068,1.356-3.739,1.356c-0.356,0-0.691-0.019-1.104-0.106
			c-0.074,1.444,0.713,1.656,1.37,1.656c0.747,0,1.441-0.722,1.6-0.95c0.975,0.017,1.513,0.58,1.513,0.58
			C59.144,20.439,57.848,21.619,56.07,21.619z M56.319,16.97c0.693,0,1.361-0.071,1.387-0.247c0.098-0.652-0.039-1.762-0.769-1.762
			c-0.817,0-1.372,0.74-1.639,1.938C55.577,16.935,55.945,16.97,56.319,16.97z"/>
		<path style="fill:#0F4DA1;" d="M62.823,17.956c-0.941-0.37-1.605-1.162-1.439-2.271c0.173-1.163,1.304-2.308,3.188-2.308
			c1.902,0,2.46,1.145,2.55,1.497c0,0-0.458,0.564-1.518,0.757c0,0-0.428-0.704-1.139-0.704c-0.391,0-0.8,0.246-0.853,0.599
			c-0.039,0.264,0.045,0.528,0.365,0.651l0.958,0.37c1.598,0.617,1.891,1.516,1.725,2.625c-0.155,1.039-1.396,2.448-3.441,2.448
			c-2.115,0-2.649-1.426-2.725-1.991c0.725-0.458,1.63-0.687,1.63-0.687s0.264,1.092,1.26,1.092c0.693,0,0.967-0.406,1.027-0.81
			c0.066-0.44-0.129-0.687-0.7-0.916L62.823,17.956z"/>
		<path style="fill:#4475CF;" d="M72.874,21.619c-2.79,0-5.19-2.025-4.576-6.147c0.641-4.297,3.846-6.006,6.264-6.006
			c2.596,0,3.741,1.374,3.817,1.462c-0.105,0.704-0.22,1.356-0.495,2.131c-0.272,0.035-0.541,0.053-0.808,0.053
			c-0.516,0-0.935-0.053-0.935-0.053c0.21-1.409-0.755-1.85-1.857-1.85c-1.866,0-3.27,1.779-3.634,4.228
			c-0.368,2.465,0.471,4.35,2.533,4.35c1.76,0,2.585-1.603,2.585-1.603c0.978,0,1.874,0.546,1.874,0.546
			C77.173,19.857,75.559,21.619,72.874,21.619z"/>
		<path style="fill:#4475CF;" d="M84.295,13.605c0.607-0.141,1.004-0.176,1.271-0.176c0.373,0,0.982,0.088,0.982,0.088l-0.856,5.741
			c-0.121,0.81,0.504,0.44,0.504,0.44c0.468,0.44,0.536,1.057,0.536,1.057c-0.087,0.106-0.736,0.881-1.839,0.881
			c-0.64,0-1.151-0.387-1.344-0.757c-0.338,0.353-0.914,0.757-1.784,0.757c-1.334,0-2.832-0.916-2.496-3.17l0.425-2.854
			c0.103-0.687-0.503-0.44-0.503-0.44s-0.375-0.582-0.416-1.268c0.545-0.317,1.288-0.528,1.732-0.528
			c0.925,0,1.676,0.564,1.497,1.762l-0.517,3.469c-0.16,1.074,0.451,1.391,1.019,1.391c0.444,0,0.807-0.281,0.894-0.387
			L84.295,13.605z"/>
		<path style="fill:#4475CF;" d="M89.012,15.613c0.103-0.687-0.503-0.44-0.503-0.44s-0.375-0.582-0.416-1.268
			c0.545-0.317,1.27-0.528,1.714-0.528c0.479,0,0.974,0.141,1.253,0.775c0.625-0.494,1.36-0.775,2.088-0.775
			c1.387,0,3.312,1.039,2.85,4.139c-0.448,3.012-2.783,4.122-4.224,4.122c-0.408,0-0.954-0.158-1.346-0.511l-0.659,4.421
			c-0.646,0.159-1.039,0.176-1.324,0.176c-0.284,0-0.936-0.035-0.936-0.035L89.012,15.613z M90.682,19.436
			c0.23,0.246,0.659,0.475,1.156,0.475c0.8,0,1.54-0.669,1.781-2.289c0.226-1.515-0.173-2.66-1.115-2.66
			c-0.746,0-1.234,0.528-1.234,0.528L90.682,19.436z"/>
		<path style="fill:#4475CF;" d="M98.259,15.613c0.103-0.687-0.503-0.44-0.503-0.44s-0.376-0.582-0.416-1.268
			c0.546-0.317,1.27-0.528,1.715-0.528c0.924,0,1.657,0.564,1.479,1.762l-0.614,4.121c-0.126,0.846,0.504,0.44,0.504,0.44
			c0.468,0.44,0.536,1.057,0.536,1.057s-0.68,0.863-1.889,0.863c-1.066,0-1.57-0.916-1.434-1.832L98.259,15.613z M98.785,10.77
			c0.103-0.687,0.717-1.232,1.41-1.232s1.163,0.545,1.061,1.232c-0.103,0.688-0.732,1.216-1.426,1.216S98.683,11.457,98.785,10.77z"
			/>
		<path style="fill:#4475CF;" d="M108.27,10.717c0.105-0.705,0.044-1.604,0.044-1.604c1.008-0.439,2.2-0.458,2.2-0.458
			s0.183,0.81,0.057,1.655l-1.334,8.947c-0.121,0.81,0.503,0.44,0.503,0.44c0.468,0.44,0.536,1.057,0.536,1.057
			s-0.683,0.881-1.892,0.881c-0.587,0-1.142-0.334-1.352-0.828c-0.446,0.37-1.19,0.828-2.079,0.828
			c-1.369,0-3.188-1.268-2.771-4.068c0.444-2.977,2.759-4.192,4.234-4.192c0.604,0,1.096,0.158,1.402,0.37L108.27,10.717z
			 M107.587,15.296c-0.24-0.177-0.59-0.335-1.123-0.335c-0.978,0-1.73,0.881-1.975,2.519c-0.226,1.515,0.264,2.518,1.152,2.518
			c0.747,0,1.326-0.546,1.326-0.546L107.587,15.296z"/>
	</g>
</g>
</svg>
